<svg id="Line" height="512" viewBox="0 0 64 64" width="512" xmlns="http://www.w3.org/2000/svg"><g fill="#c4a2fc"><path d="m60.851 37.359c5.326-9.1.282-20.353-9.937-23.482a20 20 0 0 0 -18.537 3.623 13.675 13.675 0 0 0 -5.225 12.151c1.432 11.822-5.352 15.785-5.643 15.949a1 1 0 0 0 .137 1.814l7.037 2.583v4.948a3.961 3.961 0 0 0 4.077 3.823h4.226l3.755 3.444a2.984 2.984 0 0 0 2.028.788h14.631a3 3 0 0 0 2.788-4.1 31.624 31.624 0 0 1 -2.107-13.159 18.743 18.743 0 0 1 2.77-8.382z"/><path d="m20 55h-6a1 1 0 0 1 0-2h6a1 1 0 1 1 0 2z"/><path d="m19.553 50.9-6-3a1 1 0 0 1 .895-1.789l6 3a1 1 0 1 1 -.894 1.789z"/><path d="m13.106 61.447a1 1 0 0 1 .447-1.341l6-3a1 1 0 1 1 .894 1.789l-6 3a1 1 0 0 1 -1.341-.448z"/></g><path d="m42.486 33.6c-.29-.163-7.079-4.125-5.647-15.946a13.679 13.679 0 0 0 -5.225-12.154 20.005 20.005 0 0 0 -18.537-3.623 16.874 16.874 0 0 0 -11.869 13.112 15.407 15.407 0 0 0 1.932 10.37 18.735 18.735 0 0 1 2.769 8.38 31.516 31.516 0 0 1 -.282 6.235 32.189 32.189 0 0 1 -1.827 6.926 3 3 0 0 0 2.79 4.1h14.632a2.984 2.984 0 0 0 2.027-.79l3.756-3.445h4.226a3.961 3.961 0 0 0 4.077-3.823v-4.949l7.037-2.582a1 1 0 0 0 .141-1.811zm-8.523 2.759a1 1 0 0 0 -.655.938v5.647a1.965 1.965 0 0 1 -2.077 1.823h-4.616a.994.994 0 0 0 -.675.264l-4.04 3.707a1 1 0 0 1 -.675.262h-14.635a1 1 0 0 1 -.922-1.382 34.184 34.184 0 0 0 1.937-7.355 33.468 33.468 0 0 0 .3-6.632 20.71 20.71 0 0 0 -3.039-9.282 13.43 13.43 0 0 1 -1.685-9.04 14.865 14.865 0 0 1 10.482-11.52 18.225 18.225 0 0 1 16.667 3.245 11.717 11.717 0 0 1 4.523 10.378c-1.169 9.661 2.747 14.681 5.074 16.756z" fill="#151a6a"/><path d="m44 43h6a1 1 0 0 0 0-2h-6a1 1 0 0 0 0 2z" fill="#151a6a"/><path d="m44.447 38.9 6-3a1 1 0 0 0 -.9-1.789l-6 3a1 1 0 1 0 .894 1.789z" fill="#151a6a"/><path d="m50.447 48.106-6-3a1 1 0 1 0 -.894 1.789l6 3a1 1 0 0 0 .9-1.789z" fill="#151a6a"/></svg>